<svg xmlns="http://www.w3.org/2000/svg" width="64" height="64" viewBox="0 0 64 64">
  <rect width="64" height="64" rx="14" fill="#9333EA"/>
  <path transform="translate(14.9 13.1) scale(1.1)" fill="#FFFFFF" d="M15.732 0.17407L19.252 0.67007C26.103 1.63407 31.05 6.78007 31.05 12.2791V13.6231L22.987 13.3511V12.8091C22.987 10.5951 20.882 8.63207 18.195 8.43307L16.833 8.33307C13.951 8.12007 11.494 9.92907 11.494 12.3671V21.9721C11.494 24.4111 13.951 26.2201 16.833 26.0071L18.195 25.9061C20.882 25.7081 22.987 23.7451 22.987 21.5311V20.9431L31.05 20.6751V22.0181C31.05 27.5601 26.103 32.7061 19.252 33.6701L15.732 34.1661C11.744 34.7271 7.917 33.9091 5.002 32.0371C1.952 30.0791 0 27.0331 0 23.4461V10.8391C0 7.28007 1.952 4.24707 5.002 2.29607C7.917 0.43107 11.744 -0.38693 15.732 0.17407Z"/>
</svg>
