<svg preserveAspectRatio="none" overflow="visible" style="display: block;" width="123.856" height="38.184" viewBox="0 0 123.856 38.184" fill="none" xmlns="http://www.w3.org/2000/svg">
<g id="Group 1">
<path id="Vector 1" d="M29.6804 17.2359C17.4785 18.2965 5.42195 13.1258 0.265217 10.3415V38.184H123.591V0.265218C120.323 0.928134 119.451 2.25396 115.747 7.29212C112.784 11.3226 106.668 14.8052 103.981 16.0426C98.5336 19.6224 89.818 14.8494 83.0634 13.2584C77.4286 11.9311 72.8118 12.3658 63.6712 12.0651C55.6093 11.7999 54.7197 21.3468 49.5084 21.6111C41.6643 22.0088 44.9327 15.91 29.6804 17.2359Z" fill="url(#paint0_linear_0_14)"/>
<path id="Vector 2" d="M0.265217 10.3415C5.42195 13.1258 17.4785 18.2965 29.6804 17.2359C44.9327 15.91 41.6643 22.0088 49.5084 21.6111C54.7196 21.3468 55.6093 11.7999 63.6712 12.0651C72.8118 12.3658 77.4286 11.9311 83.0634 13.2584C89.818 14.8494 98.5336 19.6224 103.981 16.0426C106.668 14.8052 112.784 11.3226 115.747 7.29212C119.451 2.25396 120.323 0.928134 123.591 0.265218" stroke="#63F0D6" stroke-width="0.530332" stroke-linecap="round"/>
</g>
<defs>
<linearGradient id="paint0_linear_0_14" x1="63.3808" y1="-3.97744" x2="63.569" y2="35.5338" gradientUnits="userSpaceOnUse">
<stop stop-color="#63F0D6"/>
<stop offset="1" stop-opacity="0"/>
</linearGradient>
</defs>
</svg>
